<?xml version="1.0" encoding="UTF-8"?>
<svg id="Layer_1" data-name="Layer 1" xmlns="http://www.w3.org/2000/svg" viewBox="0 0 221.88 238.69">
  <path d="M105.14,237.06s-.03.04-.05.06c.02-.02.04-.04.05-.06h0ZM143.3,88.96c-.19-4.09-1.55-7.38-3.82-9.26-.96-.8-2.19-1.09-3.65-.84-.08.01-.17.03-.25.05-3.91.8-8.91,5.19-12.28,10.78h0c-.41.68-1.46.38-1.45-.41v-10.91c0-.49-.31-.93-.77-1.09l-13.52-4.82c.04,7.25-.52,16.41-3.32,20.04-3.23,4.2-14.1,7.96-21.19,7.96-1.57,0-2.96-.18-4.04-.59-3.01-1.13-5.9-4.12-8.44-6.76-2.2-2.27-4.27-4.43-5.72-4.63-.51-.07-.96.04-1.32.23-.3.14-.32.55-.04.74,1.65,1.13,3.19,2.43,4.59,3.8-2.95-1.99-6.1-3.44-9.35-4.66-1.07-.43-2.14-.77-3.21-1.02-4.97-1.14-9.86-.21-13.01,3.75-.68.84-1.27,1.83-1.77,2.96-1.18,2.71-1.95,5.78-1.6,8.74.64,5.7,5.29,8.78,10.72,9.17.03,0,.05,0,.08.01,2.24.18,4.49-.03,6.69-.52,3.04-.43,6.03-1.36,8.98-2.49-4.37,2.87-9.18,4.74-14.32,4.66,6.34,11.28,18.55,16.06,36.31,14.23,4.63-.47,10.25-1.74,15.47-3.6,5.22-1.85,10.04-4.31,13.08-7.17,1.38-2.07,3.03-3.76,5.03-4.75.32-.16.27-.62-.07-.7l-3.48-.83s3.81.13,7.31-.29c5.21-.61,9.27-2.74,13.21-6.73,1.19-1.21,2.22-2.73,3.04-4.43,1.51-3.15,2.3-6.93,2.11-10.62ZM103.65,115.79c-.25.27-.53.52-.82.76-.22.2-.45.4-.67.59-.63.46-1.44,1.06-2.13,1.42-3.08,1.75-6.6,2.69-10.12,2.95-.93.07-1.86.1-2.78.08,0,0,1.32-.42.93-1.37-.3-.74-1.91-1.02-3.33-1.12-1.14.27-2.16.42-3.01.5-1.97.2-2.82.22-3.06.22h-.07c-.11,0-.22-.05-.31-.13l-1.72-1.59c-.08-.07-.13-.17-.14-.28-1.4.16-2.81.18-4.2.11,1.49-.09,2.99-.27,4.46-.59.04-.02.08-.04.11-.04.01,0,.06-.01.16-.04.04,0,.09-.01.15-.03.07-.02.14-.03.21-.05.08-.02.16-.04.23-.06.14-.04.3-.08.48-.14.03,0,.06-.01.09-.02.05-.01.1-.03.15-.05,0,.01.03,0,.04-.01.01,0,.02,0,.02-.01.09-.02.18-.05.27-.08.25-.07.5-.15.74-.24.11-.04.24-.08.35-.12.01,0,.02-.01.03-.01.04-.01.08-.02.12-.04.04-.02.08-.03.12-.05.12-.04.25-.09.38-.14.15-.05.29-.11.43-.17.32-.14.63-.28.94-.44,3.51-1.89,6.37-4.76,8.87-7.82,1.95-2.31,3.44-4.88,5.95-6.75,2.79-2.12,6.96-1.19,8.84,1.68,2.7,4.05,1.55,9.72-1.71,13.08ZM139.08,87.38c-1.79-1.64-3.74-.9-5.54.75,2.12.41,3.43,2,3.43,4.16,0,1.24-.67,2.92-1.68,4.36.59.83.92,1.82.83,2.82-.5,3.34-4.76,5.39-7.6,6.41,2.27-1.34,7.66-4.63,6.03-7.74-.06-.11-.13-.22-.2-.32-1.53-2.18-4.2-1.9-6.21-.2-.1.08-.2.17-.3.25-1.36,1.16-2.11,1.98-3.74,4.16.63-1.45,1.57-3.68,2.76-6.03.61-1.2,1.27-2.43,2-3.61,1.01-1.65,2.12-3.18,3.31-4.36,1.31-1.31,2.71-2.18,4.16-2.29,1.77-.12,3.17,1.35,3.81,2.79-.32-.42-.66-.82-1.06-1.15ZM95.5,117.22c-.35.15-.7.31-1.03.46-.28.14-.56.28-.83.41,0,.01-.02.01-.03.01-1.96.98-3.47,2.02-3.88,2.91.09-.02.18-.03.28-.05.32-.05.64-.11.97-.17s.67-.12,1-.18c.17-.04.35-.07.52-.1.07-.01.14-.03.21-.04.51-.11,1.02-.23,1.51-.37.25-.07.49-.14.73-.22.24-.08.47-.16.7-.25,2.26-.86,4.4-2.1,6.17-3.73-1.33-.25-3.75.22-6.32,1.32ZM103.26,102.65c-.22-.2-.45-.36-.7-.51-1.03-.62-2.27-.87-3.44-.63-2.01.47-3.32,2.17-4.68,3.74-.93,1.11-1.85,2.27-2.82,3.4-.88,1.03-1.81,2.02-2.79,2.96-1.8,1.83-3.85,3.55-6.2,4.65-2.07.96-3.79,1.49-4.78,1.75l.94.87c.32-.01,1.16-.04,2.84-.21,11.82-1.18,19.25-11.01,22.06-15.5l-.43-.52ZM127.47,117.86h0s.01,0,.01,0h-.01ZM172.04,154.2h0s.01.01.02.01t-.02-.01ZM172.04,154.2h0s.01.01.02.01t-.02-.01ZM146.21,188.37s-.07.03-.1.05c.06-.01.11-.02.17-.03l-.07-.02ZM146.21,188.37s-.07.03-.1.05c.06-.01.11-.02.17-.03l-.07-.02ZM105.14,237.06s-.03.04-.05.06c.02-.02.04-.04.05-.06h0ZM210.05,101.61c-.36-.28-1.07-.71-1.61-.71-.19,0-.36.06-.49.2-.03.02-.05.05-.07.09-.02.04-.04.07-.06.11-.02.04-.04.09-.05.14v.06c-.08.67.15,1.53.23,2.24.09.49.22,1.21.8,1.27h.04c.06,0,.11-.01.16-.02.05-.01.1-.02.14-.04.1-.04.2-.09.28-.15.1-.06.18-.14.26-.22.08-.08.15-.16.21-.23.75-.84,1.12-2.06.16-2.74ZM213.08,116.81c-.18-.12-.44-.26-.71-.37-.1-.04-.2-.07-.31-.1-.07-.02-.13-.04-.2-.05-.06-.01-.11-.01-.16-.02h-.05s-.07-.02-.1-.02c-.02,0-.04.01-.06.01-.07,0-.14.01-.21.03-.06.01-.12.04-.17.08-.04.02-.08.05-.11.08l-.03.03s-.03.02-.03.04c-.02.02-.03.04-.04.06-.02.04-.04.08-.06.13-.02.04-.03.09-.04.15v.06c-.02.71.28,1.57.43,2.3.11.45.3,1.13.85,1.14.46-.03.8-.45,1.07-.8.67-.89.95-2.15-.07-2.75ZM213.08,116.81c-.18-.12-.44-.26-.71-.37-.1-.04-.2-.07-.31-.1-.07-.02-.13-.04-.2-.05-.06-.01-.11-.01-.16-.02h-.05s-.07-.02-.1-.02c-.02,0-.04.01-.06.01-.07,0-.14.01-.21.03-.06.01-.12.04-.17.08-.04.02-.08.05-.11.08l-.03.03s-.03.02-.03.04c-.02.02-.03.04-.04.06-.02.04-.04.08-.06.13-.02.04-.03.09-.04.15v.06c-.02.71.28,1.57.43,2.3.11.45.3,1.13.85,1.14.46-.03.8-.45,1.07-.8.67-.89.95-2.15-.07-2.75ZM210.05,101.61c-.36-.28-1.07-.71-1.61-.71-.19,0-.36.06-.49.2-.03.02-.05.05-.07.09-.02.04-.04.07-.06.11-.02.04-.04.09-.05.14v.06c-.08.67.15,1.53.23,2.24.09.49.22,1.21.8,1.27h.04c.06,0,.11-.01.16-.02.05-.01.1-.02.14-.04.1-.04.2-.09.28-.15.1-.06.18-.14.26-.22.08-.08.15-.16.21-.23.75-.84,1.12-2.06.16-2.74ZM219.06,124.49c.13-.23.26-.47.37-.71-.09.19-.19.38-.3.57-.02.05-.04.1-.07.14ZM213.08,116.81c-.18-.12-.44-.26-.71-.37-.1-.04-.2-.07-.31-.1-.07-.02-.13-.04-.2-.05-.06-.01-.11-.01-.16-.02h-.05s-.07-.02-.1-.02c-.02,0-.04.01-.06.01-.07,0-.14.01-.21.03-.06.01-.12.04-.17.08-.04.02-.08.05-.11.08l-.03.03s-.03.02-.03.04c-.02.02-.03.04-.04.06-.02.04-.04.08-.06.13-.02.04-.03.09-.04.15v.06c-.02.71.28,1.57.43,2.3.11.45.3,1.13.85,1.14.46-.03.8-.45,1.07-.8.67-.89.95-2.15-.07-2.75ZM211.58,131.96c-.34.17-.68.31-1.03.4.35-.08.69-.22,1.03-.4ZM210.05,101.61c-.36-.28-1.07-.71-1.61-.71-.19,0-.36.06-.49.2-.03.02-.05.05-.07.09-.02.04-.04.07-.06.11-.02.04-.04.09-.05.14v.06c-.08.67.15,1.53.23,2.24.09.49.22,1.21.8,1.27h.04c.06,0,.11-.01.16-.02.05-.01.1-.02.14-.04.1-.04.2-.09.28-.15.1-.06.18-.14.26-.22.08-.08.15-.16.21-.23.75-.84,1.12-2.06.16-2.74ZM210.05,101.61c-.36-.28-1.07-.71-1.61-.71-.19,0-.36.06-.49.2-.03.02-.05.05-.07.09-.02.04-.04.07-.06.11-.02.04-.04.09-.05.14v.06c-.08.67.15,1.53.23,2.24.09.49.22,1.21.8,1.27h.04c.06,0,.11-.01.16-.02.05-.01.1-.02.14-.04.1-.04.2-.09.28-.15.1-.06.18-.14.26-.22.08-.08.15-.16.21-.23.75-.84,1.12-2.06.16-2.74ZM213.08,116.81c-.18-.12-.44-.26-.71-.37-.1-.04-.2-.07-.31-.1-.07-.02-.13-.04-.2-.05-.06-.01-.11-.01-.16-.02h-.05s-.07-.02-.1-.02c-.02,0-.04.01-.06.01-.07,0-.14.01-.21.03-.06.01-.12.04-.17.08-.04.02-.08.05-.11.08l-.03.03s-.03.02-.03.04c-.02.02-.03.04-.04.06-.02.04-.04.08-.06.13-.02.04-.03.09-.04.15v.06c-.02.71.28,1.57.43,2.3.11.45.3,1.13.85,1.14.46-.03.8-.45,1.07-.8.67-.89.95-2.15-.07-2.75ZM213.08,116.81c-.18-.12-.44-.26-.71-.37-.1-.04-.2-.07-.31-.1-.07-.02-.13-.04-.2-.05-.06-.01-.11-.01-.16-.02h-.05s-.07-.02-.1-.02c-.02,0-.04.01-.06.01-.07,0-.14.01-.21.03-.06.01-.12.04-.17.08-.04.02-.08.05-.11.08l-.03.03s-.03.02-.03.04c-.02.02-.03.04-.04.06-.02.04-.04.08-.06.13-.02.04-.03.09-.04.15v.06c-.02.71.28,1.57.43,2.3.11.45.3,1.13.85,1.14.46-.03.8-.45,1.07-.8.67-.89.95-2.15-.07-2.75ZM210.05,101.61c-.36-.28-1.07-.71-1.61-.71-.19,0-.36.06-.49.2-.03.02-.05.05-.07.09-.02.04-.04.07-.06.11-.02.04-.04.09-.05.14v.06c-.08.67.15,1.53.23,2.24.09.49.22,1.21.8,1.27h.04c.06,0,.11-.01.16-.02.05-.01.1-.02.14-.04.1-.04.2-.09.28-.15.1-.06.18-.14.26-.22.08-.08.15-.16.21-.23.75-.84,1.12-2.06.16-2.74ZM213.08,116.81c-.18-.12-.44-.26-.71-.37-.1-.04-.2-.07-.31-.1-.07-.02-.13-.04-.2-.05-.06-.01-.11-.01-.16-.02h-.05s-.07-.02-.1-.02c-.02,0-.04.01-.06.01-.07,0-.14.01-.21.03-.06.01-.12.04-.17.08-.04.02-.08.05-.11.08l-.03.03s-.03.02-.03.04c-.02.02-.03.04-.04.06-.02.04-.04.08-.06.13-.02.04-.03.09-.04.15v.06c-.02.71.28,1.57.43,2.3.11.45.3,1.13.85,1.14.46-.03.8-.45,1.07-.8.67-.89.95-2.15-.07-2.75ZM221.54,115.08c-.23-.89-.84-2.34-1.35-3.44-.44-.98-.56-2.08-.3-3.11,2.87-11.29.69-24.2-6.25-33.6h0s-.01-.03-.02-.04l-.65-.72c-.45-.5-.28-1.27.33-1.56,1.13-.54,1.79-1.58,1.96-3.1.18-1.51-.07-3.26-.66-4.55-.74-1.56-2.04-1.93-3.32-2.16-.95-.18-2.1-.27-3.33-.27-1.13,0-2.4.08-3.64.26-.87.13-1.75-.19-2.33-.85h0s0,0-.01-.01c-.05-.05-.32-.32-.72-.75-.05-.05-.1-.1-.16-.16-.05-.06-.1-.12-.16-.18-.06-.07-.12-.13-.18-.2-.12-.13-.25-.28-.38-.43-.69-.79-1.52-1.79-2.3-2.88-.19-.26-.37-.52-.54-.79-.18-.27-.35-.54-.51-.81-.16-.27-.32-.55-.46-.82-.16-.3-.31-.6-.45-.91-1.42-3.13-2.91-8.25-3.8-11.55-.25-.94-.46-1.88-.53-2.85-.04-.62-.13-1.24-.26-1.86-.28-1.27-.76-2.43-1.39-3.44-.38-.61-.66-1.27-.87-1.95-.57-1.86-1.13-3.76-1.51-5.24-.94-3.79-1.9-8.18-3.27-11.87-1.89-5.08-3.07-6.28-5.8-9.03-9.75-9.47-26.63-6.31-38.23-2.34,0,0-.79.36-1.52.7s-1.51.24-2.19-.12c-1.06-.56-2.33-.83-3.88-.83-.34,0-.67.01-1,.03-4.61.26-12.75,2.85-15.56,7.56-.61,1.03-1.14,2.32-1.28,3.54-.05.39-.53.56-.8.27-.95-1.01-2.64-2.39-4.56-1.99-.43.09-.87.05-1.29.15-4.8,1.12-7.68,5.95-9.24,9.81l-.03.08c-.62,1.64-1.82,8.78-2.08,9.23-.67,1.87-1.86,5.62-1.34,8.6.05.3.12,1.47,1.74,1.42,3.08-.08,17.41.6,24.69,5.62,2.32,1.6,5.35,4.29,8.23,9.04.7-.71,2.2-.94,3.14-.44.82.39,1.68,1.23,2.45,1.57,1.15.53,1.18-.55.82-1.32-.45-1.06-1.34-2.06-2.14-2.93-2.75-2.98-7.04-5.81-6.59-10.24.2-2.04,1.21-4.15,2.77-5.48,1.43-1.27,3.39-1.29,4.81-.04,4.61,4.54,7.69,11.13,9.57,17.27.83,2.76,1.21,6.17-.04,8.79l-.02.04c-1.46,2.86-6.73,4.76-9.92,3.58.77,2.3,1.33,4.38,1.72,6.06.68-.92,1.91-1.76,2.66-2.31,4.75-3.27,7.92,6.31,9.2,11.08.29,1.49.84,2.33,2.39,1.92,1.26-.32,1.51-1.63,1.13-2.73-.83-2.89-2.02-6.14-3.03-9.06-.46-1.33-1-2.84-1.49-4.27-.76-1.97-.96-4.27.47-5.98,2.42-3.03,6.99-4.06,9.28-.42.79,1.14,1.32,2.49,1.8,3.79,2.92,8.06,5.81,16.12,8.72,24.18,1.05,2.97,2.48,6.68.26,9.45l-.04.05c-2.28,2.83-6.59,2.33-9.02.13-1.22-1.07-1.75-2.52-2.34-4.03-.48-1.18-1.01-3.14-2.54-3.2-1.78.02-2.63,1.3-2.05,2.94.68,2.41,1.85,5.02.88,7.48-1.31,2.76-6.83,3.37-9.25,1.96-.84-.53-1.78-1.92-2.3-2.77-.7,1.15-1.49,2.19-2.37,3.08-3.36,3.4-7.67,5.71-12.1,6.86-.2.05-.23.31-.06.42,1.57.98,2.72,2.64,3.23,3.46,4.86-.58,11.55-.8,13.26,2,.12-.46.26-.99.42-1.6.66-2.41,1.74-4.88,3.42-6.66,3.24-3.72,9.68-3.53,14.26-1.35,4.66,2.1,10.36,8.2,8.66,13.69l-.02.06c-.84,2.57-3.77,3.77-6.18,2.54-2.32-1.1-3.88-3.26-6.01-4.61-1.4-.98-2.96-1.72-4.15-.58-.68.65-.93,1.81-1.01,2.53,4.13,1.51,7.39,3.85,8.13,8.12.47,2.68-.04,4.9-1.13,6.81h0c5.05,1.89,4.65-4.93,5.95-7.06,1.03-2,3.66-2.6,5.54-1.43,2.12,1.22,3.04,3.7,3.35,6.01.69,5.12-.57,11.69-5.69,14.09l-.05.02c-3.27,1.49-7.67,1.24-11.03.2-1.94-.68-4.8-2.31-6.22-3.83-.12-.14-.19-.27-.22-.39-.12.08-.23.15-.34.23-1.32.89-2.68,1.81-3.92,2.76-.54.42-1.03.9-1.45,1.44,4.83,1.64,9.91,2.65,14.98,3.22,17.08,1.91,33.75-2.56,45.77-15.25l.68-.74c1.24-1.34,2.79-2.33,4.45-3.1.96-.45,1.85-1.13,2.66-1.77.18-.14.36-.27.53-.4,1.55-1.25,2.79-2.6,3.96-4.27,2.52-3.47,3.52-7.87,2.6-11.46ZM198.56,68.32c.27-1.15.49-2.37,1.5-3.09.58-.43,1.42-.78,2.4-1.04.32-.09.66-.17,1.02-.24.09-.02.17-.03.26-.04.26-.06.54-.11.82-.14.07-.01.14-.02.21-.02.04,0,.08-.02.12-.02.07-.01.15-.02.23-.03.23-.03.47-.06.71-.07.14-.02.28-.03.42-.03.19-.02.38-.04.57-.04.37-.02.75-.03,1.12-.03.28,0,.56.01.83.02.29.01.57.02.84.05h.01c.26.02.52.04.76.07.25.04.49.07.71.11.65.12,1.17.26,1.6.5.21.11.4.26.56.44.17.18.31.39.43.65.54,1.17.73,2.73.58,4.03-.06.55-.2.99-.39,1.34h0s-.05.1-.08.14c-.01.01-.02.03-.03.04-.02.02-.03.05-.05.07-.02.03-.04.06-.07.09,0,.02-.02.03-.03.04-.07.09-.15.17-.22.24-.08.08-.17.14-.25.2-.1.07-.2.13-.31.17-.05.03-.11.06-.16.08h-.01c-.08.03-.16.06-.25.08-.03.01-.06.02-.09.03-.06.02-.12.03-.18.04-.09.02-.18.04-.28.05-.09.02-.18.03-.28.03-.03.01-.05.01-.08.01-.14.01-.29.02-.43.02-.47,0-.97-.03-1.47-.08-.47-.04-.94-.09-1.39-.12-.31-.03-.61-.04-.9-.04-.21,0-.4.01-.6.03-.45.03-.82.13-1.1.28-.07.04-.14.08-.2.12-.06.05-.11.09-.16.14-.1.09-.18.2-.24.3-.38.74.22,1.68,1.79,1.68h.04c1.19.04,2.6.17,3.05,1.45.51,1.46.56,3.98-.4,5.01-.41.41-.97.55-1.53.55-.21,0-.42-.02-.62-.05-.64-.08-1.36-.35-2.01-.35-.11,0-.22,0-.33.03-.59.1-1.05.57-1.01,1.07.53,2.44,6.17.14,7.55,3.43.73,1.82.55,4.13-.66,5.71-.44.47-.97.82-1.56,1.06-.3.13-.61.22-.93.29-.21.06-.42.1-.63.13-.02,0-.04.01-.06,0-.21.04-.43.06-.65.07-.34.04-.7.05-1.05.05-.66,0-1.33-.04-1.98-.1-.11-.01-.23-.02-.34-.03-.63-.05-1.25-.12-1.82-.17-.18-.01-.35-.03-.52-.04-2.73-.24-5.61-1.36-5.45-4.56v-.06c.35-6.02,1.35-13.4,2.67-19.55ZM193.07,111.07c-.29-1.28-.6-2.57-.91-3.92-.41-2.58-2.69-8.16.45-9.45,2.45-.8,4.09,1.88,4.78,3.87,1.27,3.29,2.24,7.34,2.8,11.07.45,3.38.65,7.39-1.9,10.01-2.67,2.81-7.04,2.31-9.61-.38-2.91-2.91-4.03-7.35-4.98-11.2v-.06c-.65-2.44-2.82-14.22,2.41-12.13,3.45,2.6,5.07,11.88,6.14,15.51.14.49.47,1.84,1.11,1.51.81-1.02-.05-3.5-.29-4.83ZM191.9,56.92c.94,1.66-.14,3.62-.77,5.24-1.19,2.91-2.17,5.25-3.3,8.07-.12.31-.3.72-.17,1.03.33.55,1.17.34,1.74.36,2.15-.03,3.2-.22,4.89-.01,2.48.64,1.45,4.72,1.44,6.6v.05c-.44,2.78-4.89,1.81-6.86,1.93-1.19-.02-.5,1.06-.14,1.63,1.25,2.12,3.88,4.55,2.5,7.24-1.04,2.01-4.01,3.85-6.03,2.4-2.7-2.94-14.67-28.35-11.75-35.26,1.17-1.01,3.63-2.03,5.07-1.24,2.21.92,2.72,11.98,3.39,9.44.75-2.44,1.54-5.27,2.25-7.61.93-2.87,2.44-2.94,5.3-1.65.9.37,2.03,1.01,2.44,1.78ZM179.84,29.19l-.04.04c-1.09,1.01-2.86,1.38-3.5,2.84-.25.58-.06,1.01.45,1.03,1.04-.01,2.06-.84,3.03-1.22.99-.45,2.07-.69,3.16-.69s2.09.22,3.05.69c5.35,2.5,6.28,10.68,2.58,15.13-.94,1.13-2.33,1.95-3.8,1.95-.26,0-.53-.02-.8-.08-3.15-.63-4.29-4.24-3.05-6.99.4-.89.75-1.97.67-2.69-.02-.21-.08-.39-.18-.52-.03-.05-.08-.09-.12-.12-.13-.11-.31-.17-.54-.17-.33,0-.77.12-1.35.4-.33.2-.66.4-1,.57-.16.09-.33.17-.5.25-.33.16-.67.29-1,.4-.51.16-1.02.25-1.55.25-.17,0-.33-.01-.5-.03-.33-.03-.67-.11-1.01-.24-.17-.06-.34-.13-.52-.22-5.74-2.85-4.68-10.99.84-13.7.97-.5,2.13-.88,3.25-.88.64,0,1.27.13,1.85.43,1.36.67,1.71,2.58.58,3.57ZM173.98,11.25c1.74-.91,4.39.46,5.36,4.83.69,3.14.47,7.14-1.01,7.16-1.57.02-1.82-2.41-3.91-5.14-2.66-3.49-2.18-5.94-.44-6.85ZM153.3,15.88c1.13-.32,2.36-.07,3.57.4.77.28,2.1,1.03,2.55,1.05.88.03-1.54-2.31-1.74-2.69-.76-1.01-1.75-2.06-1.81-3.39-.05-1.37,1.28-2.6,2.31-3.53,1.26-1.06,2.85-2.39,4.6-1.92,1.17.34,2.03,1.41,2.8,2.33,2.87,3.55,5.62,7.39,7.06,11.65.9,2.35.3,4.83-1.61,6.56-1.63,1.71-3.36.77-5.44.67-.15.01-.28.02-.32.13,0,.09.04.15.11.23.45.51,1.31.97,1.7,1.55l.03.05c1.34,2.12-1.63,3.93-3.53,3.92-2.49.08-4.59-1.47-6.39-3.02-1.73-1.48-3.26-2.87-4.9-4.57-1.05-1.1-2.25-2.33-2.45-3.89-.31-2.24,1.27-4.95,3.46-5.53ZM143.94,15.24c1.58,0,2.87,1.45,2.87,3.24s-1.29,3.23-2.87,3.23-2.87-1.45-2.87-3.23,1.28-3.24,2.87-3.24ZM127.91,33.46c-.03.21-.07.42-.11.62-.02.12-.04.24-.07.36-.02.09-.04.18-.06.27-.04.19-.09.37-.14.55-.07.27-.15.52-.24.77,0,.03-.01.06-.03.09-.08.25-.17.49-.27.72-.05.12-.11.24-.16.36-.05.12-.11.24-.17.35-.12.23-.24.45-.36.66-.17.28-.35.55-.53.8-.06.09-.12.17-.19.25-.06.08-.12.16-.2.24-.09.11-.18.21-.27.31-.08.11-.18.21-.28.3-.03.04-.06.07-.1.1-.15.16-.32.3-.48.44-.22.19-.44.36-.67.51-.23.16-.46.31-.7.44-.23.13-.47.25-.71.36-.24.11-.48.21-.73.29-.24.09-.48.16-.73.22-.24.07-.48.12-.73.16-.48.08-.96.12-1.43.12-3.27,0-5.86-1.93-4.71-4.58,1.02-2.26,4.55-3.44,4.09-6.28-.28-.93-.9-1.29-1.61-1.29-.93,0-2.03.63-2.69,1.4-1.57,1.67-2.93,3.62-4.72,5.08-1.18,1.05-2.54,1.6-3.89,1.6s-2.77-.6-3.89-1.85c-.07-.09-.15-.17-.22-.26-.07-.08-.15-.17-.21-.26-.35-.44-.64-.91-.89-1.41-.09-.18-.17-.36-.25-.55-.01-.01-.01-.03-.02-.04-.09-.22-.18-.45-.25-.69-.1-.29-.18-.58-.25-.88-.07-.29-.13-.59-.17-.9,0-.02-.01-.04-.01-.06-.03-.25-.06-.5-.08-.75-.04-.48-.04-.96-.03-1.45,0-.26.02-.53.04-.79.01-.07.01-.13.02-.2,0-.08.01-.16.02-.24.01-.12.02-.24.04-.36.01-.13.03-.25.05-.37.02-.13.04-.25.06-.37,0-.03.01-.07.02-.1,0-.04.01-.07.02-.1,0-.02,0-.05.01-.07.02-.12.04-.25.07-.37.09-.49.21-.97.35-1.44.09-.33.19-.66.3-.98.08-.26.17-.52.27-.77l.03-.06c1.55-3.84,4.29-8.23,8.55-9.22.34-.08.69-.12,1.05-.12.06,0,.12,0,.18.01.06,0,.12,0,.19.01.07,0,.14.01.21.02h.05s.01,0,.02,0c.02,0,.04,0,.05.01.08.01.15.02.23.04.03,0,.06.01.09.02.03,0,.05.01.08.02.04.01.07.02.11.03t.02.01c.1.01.21.04.3.09.08.03.15.06.23.1.02,0,.04.01.05.02.07.03.14.06.21.11.02,0,.05.01.07.03.04.02.09.05.13.09h.01c.06.02.1.06.16.11t.02.01c.06.04.12.08.17.14.08.06.16.13.23.2.07.07.14.15.2.23.04.04.06.08.09.12.03.04.06.08.09.12h0s.01.02.01.03c.03.04.05.09.07.13.03.04.05.07.07.11.02.04.04.08.05.12.01.01.01.02.02.04.04.09.08.19.1.29.04.1.07.2.08.31.02.05.03.11.04.17.37,1.88-.5,3.89-1.83,5.3-.9.99-2.06,1.85-2.8,2.84-.91,1.16-.82,2.8.67,2.86h.05c.14,0,.28-.02.42-.06.42-.11.86-.38,1.27-.7.13-.11.27-.22.4-.34.27-.23.52-.48.75-.72.06-.06.12-.12.17-.17.06-.07.11-.12.16-.17.98-1.01,2.05-1.93,3.31-2.49,1.18-.58,2.49-.86,3.79-.86.73,0,1.46.09,2.17.26.35.09.69.19,1.03.32h.01c.25.1.5.21.74.33.24.11.48.25.71.39.19.12.38.25.56.38.07.05.13.1.2.16.18.14.35.28.52.45.14.13.26.26.39.39.18.2.35.42.51.64.08.12.16.23.24.35.08.11.15.23.22.36,1.26,2.13,1.36,4.71.97,7.17ZM137.16,29.18c-.66.31-1.26.44-1.81.44-1.75,0-3.02-1.33-4.01-2.9-.17-.26-.32-.53-.48-.81-.15-.27-.29-.54-.43-.81-.91-1.71-1.97-3.93-3.01-5.88-.3-.53-.67-1.12-1.15-1.43-.14-.08-.28-.13-.41-.17-.07-.02-.14-.04-.2-.04-.07-.01-.13-.01-.2-.01-.02.01-.04.01-.07.01-.09-.01-.17,0-.26.02-.01.01-.02.01-.03.01-.31.06-.61.2-.91.37-.18.1-.36.21-.54.33-.37.23-.75.47-1.16.64-.33.16-.68.29-1.03.38-.36.09-.72.14-1.08.14-.16,0-.32-.01-.48-.03-1.21-.15-2.31-.97-2.96-2.08-.36-.76-.56-1.5-.61-2.2-.05-.46-.03-.9.05-1.33,0-.14.04-.27.08-.41.02-.13.06-.27.11-.4.1-.35.24-.68.42-1.01.09-.17.18-.33.29-.49.28-.44.61-.86,1-1.26.04-.04.07-.07.11-.11.21-.22.42-.42.65-.61.11-.09.23-.19.35-.29.14-.12.27-.23.42-.33.23-.17.46-.34.71-.49.2-.14.4-.27.61-.39.41-.25.84-.49,1.28-.71.22-.11.44-.22.67-.32.07-.04.15-.08.23-.11.12-.06.24-.11.36-.16.03-.02.07-.03.1-.04.23-.1.46-.2.7-.29.47-.19.94-.36,1.42-.52.3-.1.6-.19.9-.28.28-.09.57-.17.85-.24.28-.07.55-.14.82-.2.42-.1.83-.18,1.23-.25.8-.14,1.55-.23,2.23-.27.3-.02.62-.03.93-.03.26,0,.51.01.76.03.26.01.52.04.77.08.17.03.33.06.49.1.08.01.16.03.25.06.08.02.16.04.24.07.16.04.31.1.47.17.06.02.12.05.18.08.06.02.12.05.18.09.18.08.36.19.53.31.12.07.22.15.33.24,2.56,2.31.13,5.31-2.31,6.5-1.43.8-2.97,1.38-1.3,2.86,2.11,2.18,6.2,5.33,6.92,8.55.45,2.29-1.02,4.5-3.14,5.4l-.06.02ZM141.36,41.97c-3.57-4.62-4.11-10.94-.61-13.63,3.49-2.7,9.19-.76,12.76,3.86,3.58,4.62,4.16,11.27.66,13.97-3.49,2.7-9.23.42-12.81-4.2ZM153.98,52.38c-.87-1.8-.13-3.7,1.29-5.03.92-.99,1.94-1.22,3.24-.38.51.27,1.08.65,1.67.55.59-.11,1.02-.9,1.32-1.49.47-.86-.14-1.5-.86-1.99-.47-.36-.96-.76-1.37-1.19-.61-.63-.81-1.2-.93-2.05-.2-1.36-.33-2.94-.33-4.28v-.06c-.01-2.43,1.02-3.59,3.59-2.37,3.68,1.7,9.72,7.03,14.97,9.56.98.54,1.9,1.22,2.26,2.24.87,2.64-1,6.46-3.76,7.08-2.58.36-4.83-1.6-6.88-2.89-.86-.57-1.44-.18-1.92.55-.42.58-.88,1.26-.79,1.74.08.43.42.74.74,1.02.93.73,1.82,1.52,2.37,2.57,1.27,2.22.05,5.01-2.65,4.96-4.7-.2-9.82-4.46-11.96-8.54ZM164.14,69.9c-.29-1.58-1.2-3.64.15-4.83,1.65-1.22,4.39-1.04,5.91.29,1.53,1.39,2.27,3.64,3.01,5.54,2.73,7.17,6.69,14.28,8.86,20.66.26,1.21.21,2.44-.57,3.32-1.31,1.43-4.1,2.29-6.21,2.11-2.08-.13-3.31-2.02-3.99-3.8l-.02-.05c-2.83-7.11-5.29-15.59-7.14-23.24ZM199.93,137.89c-1.81,2.7-4.76,4.34-7.76,5.53-2.98,1.15-6.49,2.12-9.4.63-2.12-1.08-3.31-3.21-4.14-5.39-3.21-10.12-6.77-21.14-8.21-31.64v-.06c-.3-3.22,2.51-5.87,5.67-5.59,1.96.11,3.8,1.71,4.35,3.59,1.01,4.8,1.44,9.82,2.37,14.58.73,3.75,1.49,7.84,3.35,11.17.93,1.58,2.36.98,3.46-.02,2.11-1.77,4.68-3.95,7.51-3.37,2.01.43,3.72,2.52,4.11,4.6.45,2.04-.14,4.24-1.31,5.97ZM220.84,118.77c0,.07-.01.15-.02.22-.01.13-.03.27-.04.4-.02.1-.03.2-.05.3-.08.58-.21,1.15-.38,1.72-.06.22-.13.44-.21.66-.06.19-.13.37-.2.56s-.15.38-.24.57c-.08.19-.17.39-.27.58-.11.24-.24.48-.37.71-.01.03-.03.06-.05.09-.11.2-.23.4-.36.6-.01.02-.02.04-.04.06-.05.09-.11.19-.18.28-.05.08-.09.15-.15.22-.05.08-.1.16-.16.23-.27.39-.55.76-.84,1.12-.43.54-.88,1.05-1.36,1.53-.22.21-.44.43-.66.63-.14.13-.29.26-.43.38-.15.13-.3.25-.45.38-.17.13-.35.26-.52.4-.16.12-.32.24-.48.36-.34.27-.7.53-1.07.77-.09.06-.18.11-.27.16-.12.08-.24.15-.37.21-.03.02-.06.03-.09.05-.34.18-.68.32-1.03.4-.08.03-.16.04-.24.06-.08.01-.17.02-.25.03-.1.01-.21.02-.31.02s-.2,0-.3-.02c-.1,0-.2-.02-.3-.05-.07-.01-.14-.03-.21-.05-.08-.02-.17-.05-.26-.09-2.5-1.05-3-7.23-3.71-9.68-1.27-5.8-2.43-12.4-3.89-18.21v-.06c-.52-2.46-2.24-7.8.5-9.08.99-.45,2.23-.53,3.42-.53.46,0,.91.01,1.34.02,3.4.11,7.24.55,9.19,3.61,1.58,2.47,1.34,5.67.19,8.27-.56,1.31-1.39,2.37.12,3.12.24.11.47.23.69.36.19.11.38.22.55.34.18.12.35.24.51.37.16.12.32.25.47.39.14.11.27.24.4.37.15.15.29.31.43.47.01.01.02.02.02.03.08.09.15.18.21.27.08.09.14.18.2.27.04.04.06.08.09.13.03.04.05.08.08.13.08.1.14.21.21.32.12.22.24.44.34.67.12.24.22.49.3.75.04.09.07.19.1.29.08.25.15.51.2.78.01.05.02.09.03.14.04.14.06.29.08.44.03.15.05.29.06.44,0,.03.01.07.01.1.02.1.03.2.03.31v.05c.01.06.01.11.01.17v.08c.03.45.02.92-.02,1.38ZM210.05,101.61c-.36-.28-1.07-.71-1.61-.71-.19,0-.36.06-.49.2-.03.02-.05.05-.07.09-.02.04-.04.07-.06.11-.02.04-.04.09-.05.14v.06c-.08.67.15,1.53.23,2.24.09.49.22,1.21.8,1.27h.04c.06,0,.11-.01.16-.02.05-.01.1-.02.14-.04.1-.04.2-.09.28-.15.1-.06.18-.14.26-.22.08-.08.15-.16.21-.23.75-.84,1.12-2.06.16-2.74ZM213.08,116.81c-.18-.12-.44-.26-.71-.37-.1-.04-.2-.07-.31-.1-.07-.02-.13-.04-.2-.05-.06-.01-.11-.01-.16-.02h-.05s-.07-.02-.1-.02c-.02,0-.04.01-.06.01-.07,0-.14.01-.21.03-.06.01-.12.04-.17.08-.04.02-.08.05-.11.08l-.03.03s-.03.02-.03.04c-.02.02-.03.04-.04.06-.02.04-.04.08-.06.13-.02.04-.03.09-.04.15v.06c-.02.71.28,1.57.43,2.3.11.45.3,1.13.85,1.14.46-.03.8-.45,1.07-.8.67-.89.95-2.15-.07-2.75ZM148.27,39.09c-.29.22-1.18-.51-1.99-1.62-.81-1.1-1.22-2.17-.93-2.39.29-.21,1.18.52,1.99,1.62.8,1.11,1.22,2.18.93,2.39ZM107.1,61.9h-.05s.02.01.03.02.02.01.03.02v-.04ZM93.37,191.72h-.02s.03.07.06.09c-.03-.06-.04-.09-.04-.09ZM107.1,61.9h-.05s.02.01.03.02.02.01.03.02v-.04ZM110.12,229.19l-.47-1.73h.01c-2.48-7.38-9.55-16.41-19.88-25.29-10.63-9.13-21.61-15.26-29.68-16.71,0,0-1.59-.42-3.15-.42-1.42,0-2.07.43-2.91.84-1.91.9-3.02,4.04-3.25,4.84-.26.86-.33,1.34-.43,2.19-.03.24-.05.48-.07.71.07-.21.14-.4.23-.6.2-.57.68-1.44,1.06-1.89.42-.48.91-.87,1.47-1.16,6.35-3.34,21.69,4.66,34.07,15.29,14.95,12.85,22.46,25.79,18.27,31.48-.08.11-.16.21-.25.31.52-.16,1-.38,1.4-.68,1.2-.89,1.45-1.23,2.37-2.5l.31-.43c.96-1.3,1.28-2.85.9-4.25ZM87.93,187.96v-.07c0-.41-.03-.8-.06-1.16-.08-.86-.21-1.66-.42-2.39-.24-.89-.58-1.7-1.01-2.41-.08-.14-.17-.27-.25-.4l-.04-.05c-.19-.28-.39-.53-.6-.76l-.21-.22c-.89-.91-1.73-1.24-2.06-1.34-.62-.2-1.75-.43-2.3.27-.04.05-.08.1-.1.14-.17.29-.22.54.66,1.23.11.08.41.37.79.84.83,1.03,2.3,3.31,2.82,7.08.1.76.81,1.32,1.58,1.21.83-.12,1.21-.91,1.21-1.65,0-.11,0-.22,0-.32ZM90.97,186.47h-.01c-.18-.54-.36-1.06-.53-1.52-.2-.54-.4-1.02-.58-1.41v-.03l-.04-.04-.02-.05c-.19-.38-.33-.59-.4-.67l-.07-.07c-.43-.39-1.15-.64-1.75-.65.04.07.07.13.1.2.03.07.06.13.09.19.03.07.06.15.09.22.06.13.12.27.17.41.06.16.12.31.17.47,0,.01.01.03.01.04.06.17.11.35.16.52.22.79.37,1.65.44,2.56,0,.09.02.18.03.28,0,.09.01.19.02.29.01.19.02.39.02.6.33,1.1.62,2.25.88,3.41.17.76.74,1.27,1.41,1.27h.13c.12,0,.27.01.34,0,.12-.01.19-.04.22-.07.02-.01.03-.02.03-.02.09-.07.16-.17.2-.29.03-.09.04-.2.02-.3-.25-1.9-.63-3.69-1.13-5.34ZM108.96,205.3c-.81-1.89-3.52-8.47-4.17-13.32-.32-2.36-1.51-4.53-3.36-6.03-2.99-2.44-6.12-4.24-8.84-5.54-.28-.13-.6.02-.69.31-.12.4-.22.81-.3,1.21-.14.64-.22,1.26-.27,1.88-.03.48.04.96.2,1.42.1.29.22.64.3.89h.01c.41,1.32.75,2.74,1,4.23.08.48.24.96.51,1.37h0s.02,0,.02,0c0,0,.01.03.04.09h0c1.54,2.49,3.84,4.6,6.49,6.22-1.86-.91-3.55-2.02-4.99-3.32-.12-.1-.29.03-.23.17,1.81,3.98,5.41,10.49,10.2,11.89,1.64.48,2.92.06,3.82-.56.3-.2.4-.58.26-.91ZM114.48,216.94c-.19-2.31-.73-4.43-1.36-6.2-.63-1.78-1.35-3.22-1.89-4.18-.07-.13-.14-.25-.2-.36-.32.38-.72.77-1.18,1.11-1.3.98-3.14,1.63-5.42.97-6.81-2-11.1-12.22-12.16-15.02-.15.09-.33.14-.52.17-.04,0-.1.01-.18.01s-.17-.01-.3-.01h-.11c-1.12,0-2.06-.81-2.33-2-.12-.54-.25-1.08-.38-1.61-.36.56-.92.95-1.59,1.04-.1.01-.21.02-.32.02-1.17,0-2.17-.87-2.33-2.04-.48-3.53-1.84-5.66-2.61-6.61-.36-.45-.62-.67-.64-.69-.15-.12-.35-.27-.53-.46-3.42-1.77-7.44-3.04-11.62-2.62-3.82.38-7.36,2.12-10.62,5.18,8.54.71,20.83,7.22,32.61,17.34,13.71,11.78,18.61,20.94,20.36,26.07h0c.12.36.22.68.31.99,1.19-1.81,3.28-5.73,3.04-10.62-.01-.16-.02-.32-.03-.48ZM181.31,164.79c-1.64-4.55-4.09-7.72-7.04-9.17.75.58,1.44,1.26,2.08,2.02,4.73,5.64,6.38,16,4.91,30.8-.98,9.94-4.68,17.9-10.4,22.4-3.54,2.79-7.71,4.51-12.41,4.51-3.6,0-6.42-.54-8.69-1.41,2.6,1.66,5.92,2.8,10.01,2.8,4.75,0,8.36-1.32,12.46-4.55,6.09-4.79,10.02-13.17,11.05-23.58.94-9.43.26-17.67-1.97-23.82ZM168.42,175.52c-.61-.15-1.22-.27-1.81-.39l-1.6,3.52c.83.15,1.69.33,2.56.53.14.04.28.05.43.05.85,0,1.62-.59,1.83-1.46.23-1.01-.4-2.02-1.41-2.25ZM167.71,180.53c-1.11-.26-2.2-.48-3.26-.67l-1.61,3.55c1.29.21,2.64.46,4.02.79.15.03.29.04.43.04.86,0,1.63-.58,1.83-1.45.24-1.02-.39-2.03-1.41-2.26ZM167.01,185.54c-1.64-.38-3.23-.68-4.73-.91-.71,1.38-1.7,2.53-2.86,3.41,2.08.25,4.35.62,6.74,1.17.14.03.29.04.43.04.85,0,1.63-.58,1.83-1.45.23-1.01-.4-2.02-1.41-2.26ZM166.31,190.55c-3.16-.73-6.11-1.16-8.71-1.41-1.31.62-2.76.95-4.24.95-.97,0-1.96-.14-2.93-.44l-2.27-.68h-.01c-.55.03-.87.07-.93.07-1.04.12-1.78,1.05-1.67,2.08.11.96.93,1.68,1.87,1.68.07,0,.14,0,.21-.01.04-.01,1.49-.16,3.9-.16,3.26,0,8.28.28,13.93,1.59.14.03.28.05.42.05.86,0,1.64-.59,1.84-1.46.23-1.01-.4-2.02-1.41-2.26ZM166.93,160.1c-2.08-1.03-3.95-.43-5.57,1.8l-2.7,3.93c-.42.62-.44,1.44-.04,2.08l2.97,4.78c.13.21.16.47.06.71-2.98,7.3-8.13,11.24-12.28,13.31-.2.1-.3.29-.3.49s.1.4.31.5l1.5.45c2.02.62,4.11.45,5.92-.36,1.56-.7,2.91-1.86,3.82-3.4.1-.17.2-.34.29-.52l.31-.7,1.63-3.57.56-1.23,1.61-3.54,3.72-8.16c1.77-3.83-.01-5.69-1.81-6.57ZM175.15,158.65c-1.85-2.21-4.25-3.61-7.15-4.15h0c-.52-.1-1.06-.17-1.62-.21-1.07-.08-2.07-.01-3.01.25-2.99.81-5.44,3.39-7.95,8.22l1.22,1.95c.2.33.67.34.88.02l2.57-3.74c2.09-2.87,4.76-3.68,7.54-2.3,1.25.61,5.13,3.05,2.54,8.64l-3.15,6.92c.58.12,1.11.23,1.62.35,1.51.35,2.46,1.87,2.11,3.39-.23.99-.94,1.75-1.86,2.04.32.22.59.5.8.83.4.65.53,1.4.36,2.14-.23.99-.95,1.75-1.87,2.04.94.64,1.43,1.81,1.16,2.97-.22.99-.94,1.75-1.86,2.04.93.64,1.43,1.8,1.17,2.95-.28,1.22-1.34,2.13-2.58,2.2-.29.02-.57,0-.82-.07-5.57-1.29-10.53-1.56-13.71-1.56-2.35,0-3.78.15-3.79.15-.11.01-.21.02-.32.02-1.44,0-2.64-1.08-2.8-2.51-.13-1.18.49-2.28,1.49-2.81-1.06.17-2.19.34-2.56.43-2.51,7.23-2.46,13.58.16,17.9,2.14,3.54,5.98,5.72,11.4,6.48,5.74.79,10.71-.42,14.78-3.62,5.38-4.24,8.87-11.81,9.81-21.32,1.43-14.36-.1-24.34-4.55-29.64ZM147.66,153.27c-.05-.08-.08-.16-.1-.25-3.09,3.72-5.29,5.64-9.18,8.59h-.01c-2.14,2.51-4.62,3.81-7.88,4.17v.03c-5.83,2.82-13.46,5.53-21.12,5.53-3.76,0-7.53-.65-11.11-2.26-1.05-.48-2.01-1-2.87-1.54-4.44,3-7.68,7-9,8.77,3.82,1.1,16.28,5.43,23.56,16.7.14.21.43.27.63.11,1.28-1.01,3.57-2.78,6.12-4.53,3.24-2.23,5.94-3.81,8.08-4.71.35-.15.36-.64.02-.81-1.51-.74-3.56-1.31-5.3-1.51,4.34.03,8.72.66,12.76,2.3.61.26,2.36,1.12,2.97,1.46t.02.01c2.08,1.05,3.9,2.15,4.6,2.58,1.89-.18,14.71-1.84,20.2-14.74l-12.39-19.9ZM145.29,151.88h-.02c-.56-.16-1.15.09-1.42.6-.55,1.04-1.23,2.32-1.9,3.54-.14.25.18.5.39.31,1.09-1.02,2.12-2.1,3.26-3.41.3-.35.14-.91-.31-1.04ZM131.31,77.35l-6.21-3.5s-.05-.03-.08-.05l-17.77-9.99c.1,1.43.24,3.97.29,6.98l15.32,5.46.07.02,6.11,2.18c.75.26,1.59.15,2.24-.32l.07-.05c.26-.18.24-.58-.04-.73ZM117.61,47.36c-7.05-2.89-17.02-3.53-23.15-3.61-.14,0-.18.19-.05.24,1.77.78,3.65,1.75,5.63,2.94.33.2.72.29,1.1.23,3.01-.41,9.63-.99,16.37.51.2.04.28-.24.1-.31ZM135.96,76.6s-1.36-6.13-3.24-11.04h-.01c-.68-1.79-1.48-3.63-2.41-5.43-1.47-2.82-3.26-5.56-5.45-7.83-1.28-1.35-2.88-2.36-4.65-2.93-7.17-2.32-14.8-1.8-18.42-1.34,3.74,2.44,7.8,5.68,12.1,9.99,5.89,5.87,10.09,11.6,11.62,13.78.35.52.82.94,1.36,1.24l7.35,4.14c.33.19.73.26,1.11.18.08-.02.17-.02.25-.05.2-.07.49-.1.39-.71ZM122.45,70.3c-5.11-6.76-17.93-21.96-33.02-26.5-.17-.06-.34-.11-.51-.15-1.54-.44-3.09-.77-4.67-.96-6.19-.76-15.84,1.13-26.49,5.18-9.95,3.78-19.37,8.89-25.18,13.66-3.57,2.93-5.53,5.52-5.68,7.5-.28,3.82,3.22,7.63,6.2,10.17,2.6,2.19,5.25,3.82,6.31,4.43.67-.58,1.39-1.19,2.16-1.81-1.01-.6-2.65-1.62-4.23-2.84-1.56-1.19-6.29-4.81-4.74-8.85,2.75-7.2,15.97-13.41,23.6-16.47,9.5-3.81,21.84-7.27,27.99-6.4,7.45,1.06,22.42,13.11,26.7,16.66.34.28.7.53,1.08.75l10.32,5.8c.12.07.24-.07.16-.17ZM107.05,61.9c-5.63-4.45-16.91-12.84-23-13.7-5.97-.86-18.12,2.57-27.5,6.33-17.45,7-21.95,12.99-23.07,15.94-1.3,3.38,3.01,6.68,4.43,7.77,1.73,1.32,3.51,2.4,4.44,2.94.87-.68,1.8-1.39,2.79-2.12-3.16-1.82-6.71-4.66-7.83-6.06-.51-.64-.56-1.55-.13-2.26,2.33-3.84,10.25-8.83,20.66-13.01,10.42-4.18,21.24-6.75,25.73-6.12,4.66.66,12.99,6.52,17.54,9.95v.03c1.73.03,3.51.12,5.33.26l.64.07s-.02-.02-.03-.02ZM83.44,52.54c-4.34-.61-14.96,1.94-25.25,6.07-10.23,4.1-17.98,8.94-20.21,12.62-.23.37-.2.85.07,1.18,1.09,1.36,4.82,4.32,7.93,6.04,1.86-1.33,3.94-2.7,6.21-4.06,10.19-6.1,26.34-12.94,47.35-12.82-4.05-3-11.87-8.42-16.1-9.03ZM55.01,78.83l-4.5,6.14c.23-.01.47-.02.7-.02.61,0,1.24.04,1.88.1l6.36-8.68c-1.6.83-3.09,1.65-4.44,2.46ZM70.28,71.7l-8.87,12.12c.89-.41,1.94-.62,3.13-.62.35,0,.71.02,1.06.07,1.63.23,3.08,1.03,4.51,2.15l12.46-17.04c-4.45.86-8.56,2.01-12.29,3.32ZM85.59,67.86l-13.87,18.96c.57.53,1.15,1.11,1.73,1.71l15.46-21.12c-1.13.13-2.23.28-3.32.45ZM89.09,94.43c4.86-1.17,9.64-3.4,10.99-5.14.32-.42,1.89-2.95,2.17-12.84l-13.16,17.98ZM105.68,63.8c-.02-.25-.22-.45-.47-.46-23.41-1.52-41.25,5.85-52.16,12.36-9.72,5.81-15.79,11.97-17.79,14.15-.2.23-.23.56-.06.81l2.55,3.75c.32.47,1.05.4,1.27-.13.21-.51.44-1,.69-1.48.05-.09.05-.21-.01-.3l-.72-1.16v-.02s-.02-.02-.02-.02c-.14-.2-.2-.42-.2-.65,0-.3.11-.59.34-.82,2.91-2.88,8.04-7.4,15.36-11.77.62-.37,1.26-.74,1.93-1.12,1.33-.74,2.76-1.5,4.28-2.24.2-.1.4-.19.59-.29.06-.03.13-.05.19-.08.35-.17.72-.34,1.09-.51,1-.46,2.05-.92,3.13-1.37.21-.09.44-.18.66-.27.67-.27,1.36-.53,2.06-.8.23-.08.47-.17.7-.26.21-.07.42-.14.62-.22.27-.1.54-.19.82-.28.24-.09.48-.17.73-.25,3.7-1.24,7.75-2.31,12.13-3.1.39-.07.78-.14,1.18-.2.12-.02.24-.04.37-.06l.21-.03c.37-.07.74-.12,1.12-.18.03,0,.07-.01.11-.01,1.07-.16,2.17-.3,3.28-.41h.01c1.02-.11,2.06-.2,3.12-.28.16-.01.32-.02.48-.03.09,0,.18,0,.27-.02.24-.01.47-.02.71-.04.37-.02.74-.03,1.11-.05.3-.01.6-.03.9-.03.17-.01.34-.01.51-.02.75-.02,1.5-.03,2.25-.03.98,0,1.96.02,2.95.05.61.02,1.11.51,1.13,1.13.09,2.08.18,4.96.13,7.94,0,.04,0,.08-.01.12-.18,11.02-1.88,14.07-2.4,14.74-.85,1.1-2.68,2.25-4.95,3.27-2.28,1.02-5,1.9-7.62,2.45-.22.04-.44.09-.65.13-.11.02-.22.04-.33.06-.18.03-.35.06-.53.09-.11.02-.22.03-.33.05-.08.01-.16.03-.24.03-.41.06-.81.11-1.21.15-.21.02-.41.03-.62.05-.19.01-.37.02-.56.02-.04.01-.08.01-.13.01-.17,0-.33.01-.5.01-1.1,0-2.03-.13-2.62-.35-2.1-.79-4.63-3.41-6.87-5.73-.26-.27-.52-.53-.77-.8-.59-.6-1.16-1.18-1.73-1.72-.4-.38-.8-.74-1.21-1.08-.12-.1-.24-.2-.36-.29-.02-.01-.03-.02-.04-.03-1.32-1.04-2.65-1.77-4.09-1.98-.3-.04-.62-.06-.92-.06-1.29,0-2.66.28-3.71,1.15-.48.4-.96.94-1.29,1.37-.18.21-.09.53.16.65.49.21.96.45,1.43.7.24.13.53.11.74-.07.66-.56,1.77-1.22,3.21-1.02,1.97.29,4.12,2.52,6.62,5.11,2.43,2.51,5.18,5.36,7.86,6.37,5.39,2.03,19.85-2.2,23.44-6.86,1.82-2.36,2.85-8.06,2.97-16.5.08-4.8-.16-9.24-.29-11.24ZM33.49,138.57c-4.51,4.67-10.68,8.21-16.95,4.41-3.16-2.05-5.86-6.52-4.15-10.26.61-1.22,1.89-2.41,3.13-3.23-1.71.51-3.22,1.38-4.37,2.55-1.21,1.23-1.89,2.67-1.86,3.96.06,3.32,2.14,7.43,5.05,10.01,1.52,1.35,3.98,2.89,6.98,2.57,5.94-.63,12.29-4.03,12.37-8.12-.17-.61-.23-1.25-.2-1.89ZM29.9,147.5c-2.47,1.39-5.49,2.33-8.41,2.64-.32.03-.65.05-.97.05-2.5,0-4.98-1.03-7.22-3.01-.43-.37-.83-.78-1.22-1.2-1.13,1.04-1.71,2.38-1.71,4.02,0,1.4.72,2.82,2.02,4,1.99,1.8,4.96,2.7,7.95,2.41,6.27-.61,10.12-4.49,10.12-7,0-.66-.19-1.3-.56-1.91ZM76.88,139.44c-.65-2.19-1.4-4.04-2.17-5.53-.84-1.63-2.4-2.76-4.2-3.06-8.8-1.45-34.22-6-42.77-11.07-6.51-3.86-10.7-9.67-14.07-14.34-3.06-4.23-5.47-7.57-8.11-7.32-3.32.33-5.56,3.62-5.56,8.18,0,12.56,15.7,19.69,20.01,21.41,2.76-.57,5.63-.47,8.54-.61-3,.75-6.05,1.15-8.96,2.14-2.33.79-5.83,2.55-6.14,5.39-.23,3.69,2.95,7.33,6.54,8.13,3.9.95,7.71-1.02,10.6-3.6,1.49-1.31,2.48-2.5,3.69-3.88l2.19-2.6c-.06.15-.97,2.5-1.21,3.37-.31,1.16-.34,2.44-.14,3.62.13.96.78,1.78,1.47,2.46,1.17,1.13,2.65,1.93,4.28,2.07,2.45.08,4.88-2.15,6.55-3.82-.48.77-1.03,1.52-1.64,2.22-1.55,1.8-3.87,3.62-6.45,2.94-1.76-.54-3.33-1.6-4.49-3.01-.64,1.57-1.94,2.97-3.61,4.14.52.86.8,1.79.8,2.74s-.32,1.91-.9,2.86c1.16.75,3.9,2.23,7.08,2.01,7.35-.52,11.76-10.19,11.8-10.29.09-.18.24-.33.43-.41,6.01-2.38,23.32,1.64,27.78,2.74-.13-1.83-.53-4.17-1.34-6.88ZM86.15,130.62c.14-.41-.18-.81-.6-.78-1.68.13-3.32.19-4.91.19-2.12,0-4.17-.11-6.12-.34-.31-.03-.5.31-.31.54,1.68,2.06,3.16,5.36,4.18,8.76,1.37,4.61,1.98,9.78.89,12.1,1.25,0,3.29-.4,6.29-2.14.29-.17.41-.53.27-.84-1.43-3.06-1.86-6.8-1.27-11.07.37-2.6,1.04-4.88,1.58-6.42ZM92.24,129.05c-1.14.19-2.28.35-3.41.48-.38.04-.7.29-.84.64-1.14,2.99-4.1,12.2.05,18.71.12.18.4.1.41-.11.28-6.19,1.3-13.6,4.23-19.11.16-.31-.1-.66-.44-.61ZM110.27,133.18c-.91,1.14-1.52,2.24-1.52,3.29,0,.83.26,1.63.74,2.29.1.14.32.08.34-.09.11-.95.39-3.28.74-5.36.04-.17-.19-.27-.3-.13ZM159.57,130.27c-.53-3-2.54-5.1-6.63-6.7-1.66-.65-3.67-1.22-6.06-1.73-.78-.17-1.59-.29-2.38-.39-1.36-.15-2.67-.21-3.71-.21s-1.89.57-2.31,1.47c-.43.92-.83,1.98-1.17,3.13-.64,2.21-.89,4.38-.7,6.05.42.53.8,1.02,1.12,1.43,2.83-2.38,6.11-4.27,9.7-5.12-3.39,1.41-6.28,3.78-8.61,6.56h.01s-.79.94-.79.94c-.1.12-.29.12-.39-.01-.78-1.02-3.92-5.06-6.57-7.67-1.72-1.7-3.63-2.45-6.36-2.51-.35,0-.7.03-1.04.08-1.18.19-2.13,1.08-2.41,2.24-.18.77-.36,1.56-.52,2.37.7-.55,1.4-1.08,2.11-1.61.03-.02.09-.02.11.02.03.04.02.08-.02.11-.78.78-1.57,1.54-2.36,2.3-4.64,4.44-9.38,8.73-13.05,13.98-.67,1.05-1.18,2.01-1.36,3.1-.14,1.81.79,3.91,2.35,4.87,3.69,1.67,11.67-4.4,14.7-6.65.07-.06.17.05.1.11-1.54,1.54-3.19,2.97-4.93,4.28-1.8,1.29-3.74,2.64-5.87,3.37.01.07.01.15,0,.23-.29,4.58,2.57,5.38,6.51,5.15,1.84-.14,3.71-.45,5.51-1.02,1.1-.35,2.79-1.06,3.97-1.58.12-.06.21.11.1.18-1.04.68-2.7,1.55-3.69,1.99-1.96.86-4.2,1.45-6.43,1.65,1.86,2.47,5.39,3.18,6.91,3.38l1.55.2c5.94.41,9.12-1.28,12.17-6.43,1.66-2.83,4.44-8.19,4.47-8.25.64-1.31,1.61-2.5,2.8-3.41,1.27-.98,2.65-1.92,3.99-2.82.22-.15.44-.3.66-.44,3.33-2.26,6.45-4.49,7.86-7.46.72-1.5,1-3.2.66-5.18ZM140.08,117.41c-3.17-.65-8.47-.23-12.6.45h-.01s0,0,0,0h-.01c-.7.11-1.37.24-1.99.36l-.11.02c-.37.07-.7.3-.89.62-.71,1.22-1.44,2.99-2.12,5.12-.05.14.07.27.22.24.65-.17,1.41-.3,2.18-.27,3.13.06,5.42.98,7.43,2.95.93.92,1.89,1.97,2.77,3,.12.15.36.07.38-.12.08-1.34.35-2.82.78-4.29.5-1.75,1.23-3.48,2.07-4.9t.02-.02c.62-1.05,1.31-1.92,2.03-2.51.24-.19.15-.58-.15-.65ZM128.29,115.66c-.91-1.17-2.26-2.46-3.67-2.46-.1,0-.2,0-.29.02-3.19.41-7.64,3.16-10.72,13.89-1.13,3.95-1.75,7.86-2.06,10.37-.03.23.24.36.41.2.28-.26.56-.53.84-.79,1.77-1.64,3.6-3.21,5.46-4.73.39-.31.66-.75.75-1.24.27-1.43,2.75-14.02,6.6-15.32.54-.18,1.36-.24,2.23.48.06.06.15.09.23.08h.01c.24-.03.36-.31.21-.5ZM125.21,165.61c-3.96-.5-7.06-2.25-8.5-4.8-.01-.02-.01-.03-.02-.05-.16,0-.33,0-.49-.01-3.81-.07-5.66-2.64-5.85-6.17-.27.03-.54.04-.81.05-3.36-.05-5.58-4.56-4.74-7.52.65-2.12,2.06-3.87,3.45-5.55.27-.31.55-.63.83-.94-1.2-1.03-1.9-2.54-1.9-4.15,0-2.18,1.65-4.21,3.64-6.26.31-.32.53-.73.64-1.17.6-2.46,1.39-5.06,2.42-7.47-5.32,3.16-11.41,5.38-17.76,6.75-.77.17-1.42.67-1.79,1.36-1.24,2.34-3.84,8.4-4.27,18.85-.22,5.34.04,9.89.17,11.52.03.32.14.62.32.88.9,1.29,3.57,4.58,8.44,6.76,7.45,3.32,16.98,2.66,27.72-1.88l-1.5-.2ZM182.35,163.04s.02.05.03.07h.03l-.06-.07ZM185.3,178.66v.08l.04-.08h-.04ZM185.17,185.8v.08l.04-.08h-.04ZM185.3,178.74v.13h.04s-.04-.13-.04-.13ZM184.1,194.21s-.01.04-.01.06l.04-.06h-.03ZM185.17,185.88s0,.08-.01.13h.04s-.03-.13-.03-.13ZM181.68,202.1l-.03.06.05-.06h-.02ZM184.06,194.38h.03s0-.11,0-.11c-.01.04-.02.07-.03.11ZM185.92,178.79l1.5-3.23-2.12-4.08.65-5.05-3.04-3.63-.5-4.3-.2-.15s-1.97-1.31-5.29-2.73l1.54,1.38c1.59,1.56,3.86,5.96,3.86,5.96l.03-.02v.1s.07.07.07.07h-.03c1.62,4.09,2.72,9.6,2.92,15.55h.04l-.04.08.04.14h-.04c.03,1.85,0,4.96-.13,6.92h.04l-.04.08.03.14h-.04c-.05.59-.2,2.48-.24,2.85-.18,1.84-.45,3.63-.82,5.34h.03l-.04.06v.12h-.03c-.57,2.54-1.45,5.51-2.38,7.71h.02l-.05.06-.02.1-.02-.02c-1.07,2.27-2.8,5.17-4.32,6.93-1.14,1.32-2.5,3-5.28,4.76-3.02,1.91-3.8,2.34-6.01,3.07,0,0,2.06,0,3.87-.38,3.56-.75,5.58-1.82,5.68-1.86l.21-.09,1.98-4.74,3.39-1.98,1.05-5.52,2.53-2.76-.05-5.22,2.14-3.11-1.03-5.36,1.44-2.62-1.3-4.57ZM182.34,162.94l-.03.02s.03.05.04.08v-.1ZM177.35,209.46s-.04.05-.06.07l.09-.05-.03-.02ZM181.61,202.24l.02.02.02-.1s-.02.05-.04.08ZM172.12,154.31h0s.01.01.02.01t-.02-.01ZM93.45,191.83h-.02s.03.07.06.09c-.03-.06-.04-.09-.04-.09ZM100.38,237.41c.28,0,.55-.02.8-.05,1.42-.16,2.44-.65,3.03-1.44.51-.69.79-1.57.84-2.63l-4.67,4.12ZM103.13,226.77h-1.92l-9.39,8.76-.93.87c.46.41.95.74,1.43,1.02,1.79,1.01,3.57,1.23,4.24,1.27l.07-.06,1.54-1.36,6.4-5.64-1.44-4.86ZM102.85,225.03c-.73-1.33-1.56-2.78-2.65-4.16-.29-.37-1.19-1.4-1.25-1.46l2.27,6.13h1.91l-.28-.51ZM97.78,219.78l-1.18.2-12.58,11.73-.94.88c.11.21.22.4.34.59,1.51,2.34,4.06,3.15,4.99,3.39l.55-.51,1.27-1.19,9.76-9.11-2.21-5.98ZM97.99,217.99c-.8-.99-1.63-2.03-2.58-2.99-.31-.32-1.23-1.18-1.35-1.29l2.43,5.04,1.87-.31-.37-.45ZM92.86,214.08l-1.79-.03-14,13.06-.9.84c.07.21.15.42.24.61,1.06,2.43,3.04,3.88,3.93,4.45l1.1-1.03,1.18-1.1,12.66-11.81-2.42-4.99ZM92.82,212.27c-.93-.94-1.93-1.91-3.05-2.95l-1.54-1.34,2.8,4.84,2.37.04-.58-.59ZM87.18,208.63l-1.86.08-14.56,13.26-.9.81c.04.22.1.42.16.63.79,2.59,2.74,4.14,3.64,4.74l.98-.92,1.16-1.08,13.98-13.04-2.6-4.48ZM86.99,206.82c-.17-.15-.59-.51-.59-.51-1.1-.95-2.22-1.91-3.39-2.8-.45-.34-1.8-1.31-1.89-1.37l4.09,5.34,2.42-.1-.64-.56ZM80.12,202.86l-1.36.48-13.9,12.97-.86.81c.03.24.07.47.13.7.59,2.49,2.33,4.35,3.19,5.15l1.1-1,1.16-1.06,14.36-13.07-3.82-4.98ZM79.83,201.09c-1.2-.88-2.39-1.73-3.57-2.48-.47-.3-1.86-1.16-1.95-1.21l4.17,4.74,1.87-.67-.52-.38ZM73.45,198.28l-1.75.55-12.2,11.39-.77.81c.06.37.13.64.22.98.69,2.55,2.13,4.24,2.89,4.98l.8-.75,1.14-1.07,13.47-12.56-3.8-4.33ZM72.98,196.55c-1.65-.99-3.28-1.92-4.9-2.65-.48-.22-1.9-.8-1.99-.83l5.32,4.57,2.22-.7-.65-.39ZM65.34,194.05l-1.3.85-9.16,8.54-.69.65c.09.66.22,1.27.36,1.84.6,2.4,1.53,4,2.09,4.81l.76-.7,1.15-1.08,11.57-10.8-4.78-4.11ZM64.64,192.4c-.96-.38-2.36-.92-3.17-1.15-.41-.11-1.64-.42-1.64-.42l3.78,2.88,1.65-1.08-.62-.23ZM58.26,191.01c-3.57-.67-5.39.59-6.29,2.33-.63,1.76-.81,2.31-.6,6.31h0c.18,1.43.51,2.7.8,3.62.04.15.09.29.13.43l.05-.04.57-.53,1.19-1.12,8.27-7.72s-3.95-3.27-4.12-3.28Z"/>
</svg>